<?xml version="1.0" encoding="UTF-8"?>
<!DOCTYPE svg PUBLIC "-//W3C//DTD SVG 1.1//EN" "http://www.w3.org/Graphics/SVG/1.1/DTD/svg11.dtd">
<svg xmlns="http://www.w3.org/2000/svg" version="1.1" width="128px" height="128px" style="shape-rendering:geometricPrecision; text-rendering:geometricPrecision; image-rendering:optimizeQuality; fill-rule:evenodd; clip-rule:evenodd" xmlns:xlink="http://www.w3.org/1999/xlink">
<g><path style="opacity:1" fill="#202531" d="M 9.5,-0.5 C 45.5,-0.5 81.5,-0.5 117.5,-0.5C 121.833,1.83333 125.167,5.16667 127.5,9.5C 127.5,45.5 127.5,81.5 127.5,117.5C 125.167,121.833 121.833,125.167 117.5,127.5C 81.5,127.5 45.5,127.5 9.5,127.5C 5.16667,125.167 1.83333,121.833 -0.5,117.5C -0.5,81.5 -0.5,45.5 -0.5,9.5C 1.83333,5.16667 5.16667,1.83333 9.5,-0.5 Z"/></g>
<g><path style="opacity:1" fill="#363d52" d="M 11.5,3.5 C 45.835,3.33335 80.1683,3.50002 114.5,4C 117.539,5.03138 120.039,6.86471 122,9.5C 123.653,44.415 123.986,79.415 123,114.5C 121.969,117.539 120.135,120.039 117.5,122C 82.2269,123.647 46.8936,123.98 11.5,123C 9.04003,121.542 6.87337,119.709 5,117.5C 3.35335,82.2269 3.02002,46.8936 4,11.5C 6.02821,8.30777 8.52821,5.64111 11.5,3.5 Z"/></g>
<g><path style="opacity:1" fill="#f3f3f5" d="M 102.5,5.5 C 104.383,7.76339 105.716,10.4301 106.5,13.5C 109.785,14.3236 113.118,14.8236 116.5,15C 113.833,17 111.167,19 108.5,21C 110.171,24.0022 111.004,27.1688 111,30.5C 108.333,28.5 105.667,26.5 103,24.5C 100.743,26.0456 98.5765,27.7123 96.5,29.5C 95.5072,26.7618 95.8406,24.0951 97.5,21.5C 95.4231,18.6255 92.7564,16.4589 89.5,15C 92.8333,14.6667 96.1667,14.3333 99.5,14C 100.798,11.2731 101.798,8.4398 102.5,5.5 Z"/></g>
<g><path style="opacity:1" fill="#488cbe" d="M 104.5,79.5 C 99.1777,80.0293 93.8443,80.5293 88.5,81C 87.5562,83.7191 87.2229,86.5525 87.5,89.5C 83.1161,89.8256 78.7828,89.4922 74.5,88.5C 73.9067,86.6183 73.2401,84.7849 72.5,83C 66.5,82.3333 60.5,82.3333 54.5,83C 53.7599,84.7849 53.0933,86.6183 52.5,88.5C 48.2172,89.4922 43.8839,89.8256 39.5,89.5C 39.7771,86.5525 39.4438,83.7191 38.5,81C 33.1343,80.6773 27.8009,80.1773 22.5,79.5C 22.6664,71.16 22.4997,62.8267 22,54.5C 19.4846,51.4937 18.1512,48.1604 18,44.5C 20.3414,41.3291 22.8414,38.3291 25.5,35.5C 28.3927,38.1215 31.726,39.2882 35.5,39C 38.2972,37.2793 40.6305,35.1126 42.5,32.5C 41.5282,29.5358 41.3615,26.5358 42,23.5C 45.3244,21.7565 48.8244,20.4231 52.5,19.5C 55.4488,21.3727 57.4488,24.0393 58.5,27.5C 61.8333,28.8333 65.1667,28.8333 68.5,27.5C 69.6032,24.2812 71.4366,21.6145 74,19.5C 77.6171,20.5388 81.1171,21.8722 84.5,23.5C 85.3253,27.1224 85.8253,30.789 86,34.5C 88.4449,35.9771 90.6116,37.8104 92.5,40C 95.6324,39.1008 98.6324,37.6008 101.5,35.5C 104.942,38.608 107.609,42.2747 109.5,46.5C 108.27,49.2913 106.77,51.9579 105,54.5C 104.5,62.8267 104.334,71.16 104.5,79.5 Z"/></g>
<g><path style="opacity:1" fill="#ebeff3" d="M 59.5,38.5 C 68.9467,37.1189 73.4467,41.1189 73,50.5C 67.6628,57.8949 61.9961,58.2282 56,51.5C 54.5394,46.3265 55.7061,41.9932 59.5,38.5 Z"/></g>
<g><path style="opacity:1" fill="#454446" d="M 60.5,42.5 C 68.0001,41.1657 70.8334,44.1657 69,51.5C 65.6667,55.5 62.3333,55.5 59,51.5C 58.068,48.1769 58.568,45.1769 60.5,42.5 Z"/></g>
<g><path style="opacity:1" fill="#ecf1f4" d="M 38.5,55.5 C 48.7811,55.1087 52.6144,59.7753 50,69.5C 46.604,73.2027 42.4374,74.3694 37.5,73C 30.7803,66.7647 31.1136,60.9313 38.5,55.5 Z"/></g>
<g><path style="opacity:1" fill="#ebf0f4" d="M 81.5,55.5 C 91.7811,55.1087 95.6144,59.7753 93,69.5C 89.604,73.2027 85.4374,74.3694 80.5,73C 73.7803,66.7647 74.1136,60.9313 81.5,55.5 Z"/></g>
<g><path style="opacity:1" fill="#484749" d="M 39.5,59.5 C 46.6647,58.4966 49.498,61.4966 48,68.5C 44.0214,72.6438 40.3547,72.3104 37,67.5C 36.3875,64.3893 37.2209,61.7226 39.5,59.5 Z"/></g>
<g><path style="opacity:1" fill="#484749" d="M 81.5,59.5 C 87.8057,58.7073 90.639,61.3739 90,67.5C 86.6453,72.3104 82.9786,72.6438 79,68.5C 77.9302,64.8579 78.7636,61.8579 81.5,59.5 Z"/></g>
<g><path style="opacity:1" fill="#f2f7fa" d="M 22.5,79.5 C 27.8009,80.1773 33.1343,80.6773 38.5,81C 39.4438,83.7191 39.7771,86.5525 39.5,89.5C 43.8839,89.8256 48.2172,89.4922 52.5,88.5C 53.0933,86.6183 53.7599,84.7849 54.5,83C 60.5,82.3333 66.5,82.3333 72.5,83C 73.2401,84.7849 73.9067,86.6183 74.5,88.5C 78.7828,89.4922 83.1161,89.8256 87.5,89.5C 87.2229,86.5525 87.5562,83.7191 88.5,81C 93.8443,80.5293 99.1777,80.0293 104.5,79.5C 104.5,80.5 104.5,81.5 104.5,82.5C 99.8696,83.2295 95.2029,83.5628 90.5,83.5C 90.7771,86.4475 90.4438,89.2809 89.5,92C 83.4977,92.7587 77.4977,93.092 71.5,93C 70.5939,91.3005 70.2606,89.4672 70.5,87.5C 68.6028,86.1952 66.2695,85.5286 63.5,85.5C 60.7305,85.5286 58.3972,86.1952 56.5,87.5C 56.7394,89.4672 56.4061,91.3005 55.5,93C 49.4705,93.4644 43.4705,93.131 37.5,92C 36.8333,89.3333 36.1667,86.6667 35.5,84C 31.1371,83.6306 26.8038,83.1306 22.5,82.5C 22.5,81.5 22.5,80.5 22.5,79.5 Z"/></g>
<g><path style="opacity:1" fill="#488cbe" d="M 22.5,82.5 C 26.8038,83.1306 31.1371,83.6306 35.5,84C 36.1667,86.6667 36.8333,89.3333 37.5,92C 43.4705,93.131 49.4705,93.4644 55.5,93C 56.4061,91.3005 56.7394,89.4672 56.5,87.5C 61.1667,86.1667 65.8333,86.1667 70.5,87.5C 70.2606,89.4672 70.5939,91.3005 71.5,93C 77.4977,93.092 83.4977,92.7587 89.5,92C 90.4438,89.2809 90.7771,86.4475 90.5,83.5C 95.2029,83.5628 99.8696,83.2295 104.5,82.5C 105.184,89.9601 102.517,95.7934 96.5,100C 81.8942,106.744 66.5609,109.077 50.5,107C 40.3805,105.865 31.8805,101.698 25,94.5C 23.0111,90.747 22.1778,86.747 22.5,82.5 Z"/></g>
<g><path style="opacity:1" fill="#87b3d5" d="M 70.5,87.5 C 65.8333,86.1667 61.1667,86.1667 56.5,87.5C 58.3972,86.1952 60.7305,85.5286 63.5,85.5C 66.2695,85.5286 68.6028,86.1952 70.5,87.5 Z"/></g>
</svg>
